<svg width="116" height="155" viewBox="0 0 116 155" fill="none" xmlns="http://www.w3.org/2000/svg">
<path d="M84.3395 107.067C77.1473 99.8745 67.3926 95.834 57.2213 95.834C47.05 95.834 38.6101 98.5597 31.4179 105.752" stroke="#5D0028"/>
<circle cx="36.0538" cy="83.8835" r="6.21686" fill="#760033" stroke="#5D0028"/>
<circle cx="79.6925" cy="83.8835" r="6.21686" fill="#760033" stroke="#5D0028"/>
<path d="M113.286 32.0038L113.286 32.0039C114.549 33.2661 115.25 34.9775 115.25 36.7446V38.0833H77.6667V0.5H79.0054C80.8037 0.5 82.5146 1.20212 83.776 2.4634C83.7761 2.46346 83.7761 2.46352 83.7762 2.46358L113.286 32.0038ZM67.0208 0.5V40.9948C67.0208 45.2498 70.5002 48.7292 74.7552 48.7292H115.25V147.099C115.25 150.832 112.249 153.833 108.516 153.833H7.23438C3.50147 153.833 0.5 150.832 0.5 147.099V7.23438C0.5 3.50147 3.50147 0.5 7.23438 0.5H67.0208Z" stroke="#5D0028"/>
</svg>
